<svg width="250" height="250" viewBox="0 0 250 250" fill="none" xmlns="http://www.w3.org/2000/svg">
<g clip-path="url(#clip0_349_4625)">
<rect width="250" height="250" rx="20" fill="white"/>
<path d="M0 0H30V199.94C30 210.986 38.9543 219.94 50 219.94H250V250H0L0 0Z" fill="#005128"/>
<path d="M250 250H220V50.0601C220 39.0144 211.046 30.0601 200 30.0601H30V0H250L250 250Z" fill="#21BA31"/>
<path d="M80.2046 92.84C80.3646 93.14 80.3746 93.44 80.2346 93.74C80.1346 94.06 79.9646 94.3 79.7246 94.46C79.6046 94.56 79.4946 94.65 79.3946 94.73C79.2946 94.79 79.1846 94.84 79.0646 94.88C78.8446 95 78.5846 95.04 78.2846 95C78.1646 95 78.0546 94.98 77.9546 94.94C77.8546 94.9 77.7546 94.85 77.6546 94.79C77.5546 94.73 77.4446 94.67 77.3246 94.61C77.2246 94.53 77.1246 94.45 77.0246 94.37C76.9046 94.27 76.7946 94.18 76.6946 94.1C76.5946 94.02 76.5046 93.93 76.4246 93.83C76.3246 93.73 76.2346 93.63 76.1546 93.53C76.0746 93.43 75.9946 93.34 75.9146 93.26L75.5546 92.87L69.7946 86.84L69.8846 92.87V93.14C69.8846 93.22 69.8746 93.31 69.8546 93.41C69.8346 93.49 69.8146 93.58 69.7946 93.68C69.7346 93.94 69.6646 94.17 69.5846 94.37C69.5446 94.49 69.4846 94.59 69.4046 94.67C69.3446 94.75 69.2746 94.83 69.1946 94.91C68.9746 95.11 68.7146 95.22 68.4146 95.24C68.1146 95.34 67.8346 95.37 67.5746 95.33C67.3346 95.31 67.0846 95.24 66.8246 95.12C66.6246 95 66.4446 94.8 66.2846 94.52C66.2446 94.44 66.2146 94.39 66.1946 94.37C66.1946 94.35 66.1746 94.28 66.1346 94.16C66.0146 93.96 65.9546 93.76 65.9546 93.56C65.9346 93.44 65.9146 93.33 65.8946 93.23C65.8946 93.13 65.8846 93.02 65.8646 92.9C65.8446 92.82 65.8346 92.74 65.8346 92.66C65.8346 92.58 65.8346 92.5 65.8346 92.42C65.8546 92.32 65.8646 92.24 65.8646 92.18C65.8646 92.1 65.8646 92.01 65.8646 91.91L65.8346 89.54L65.8046 85.13C65.8046 83.85 65.7746 82.47 65.7146 80.99C65.6946 80.27 65.6846 79.63 65.6846 79.07C65.6846 78.51 65.6946 77.88 65.7146 77.18V77.06C65.7546 76.84 65.7746 76.63 65.7746 76.43C65.7746 76.21 65.7846 76 65.8046 75.8C65.8046 75.4 65.8946 75 66.0746 74.6C66.1946 74.3 66.4046 74.06 66.7046 73.88C66.8646 73.78 67.0146 73.72 67.1546 73.7C67.3146 73.66 67.4846 73.62 67.6646 73.58C67.8046 73.58 67.9346 73.59 68.0546 73.61C68.1946 73.63 68.3246 73.65 68.4446 73.67C68.7046 73.71 68.9446 73.82 69.1646 74C69.2246 74.06 69.2746 74.13 69.3146 74.21C69.3746 74.29 69.4246 74.39 69.4646 74.51C69.5646 74.67 69.6346 74.9 69.6746 75.2C69.6946 75.32 69.7046 75.44 69.7046 75.56C69.7246 75.68 69.7346 75.81 69.7346 75.95V77.18L69.7646 80.84C70.0846 80.56 70.3946 80.27 70.6946 79.97C71.0146 79.67 71.3246 79.35 71.6246 79.01C72.1646 78.45 72.6946 77.91 73.2146 77.39C73.7546 76.85 74.2946 76.32 74.8346 75.8L74.9246 75.71C75.0846 75.55 75.2446 75.4 75.4046 75.26C75.5846 75.1 75.7546 74.95 75.9146 74.81C76.2146 74.47 76.5846 74.23 77.0246 74.09C77.3046 73.91 77.6346 73.84 78.0146 73.88C78.1946 73.9 78.3546 73.94 78.4946 74C78.6546 74.06 78.8046 74.14 78.9446 74.24C79.0446 74.34 79.1446 74.43 79.2446 74.51C79.3446 74.57 79.4246 74.65 79.4846 74.75C79.6446 74.89 79.7446 75.1 79.7846 75.38C79.7846 75.6 79.7446 75.8 79.6646 75.98C79.6046 76.08 79.5446 76.18 79.4846 76.28C79.4246 76.38 79.3546 76.48 79.2746 76.58C79.1746 76.7 79.0846 76.81 79.0046 76.91C78.9246 77.01 78.8346 77.11 78.7346 77.21C78.6546 77.31 78.5646 77.4 78.4646 77.48C78.3846 77.56 78.3046 77.65 78.2246 77.75L77.8346 78.14L72.2246 83.87C72.5246 84.17 72.8346 84.49 73.1546 84.83C73.4946 85.15 73.8146 85.47 74.1146 85.79C74.4146 86.09 74.6946 86.38 74.9546 86.66C75.2146 86.92 75.4346 87.14 75.6146 87.32C76.1546 87.88 76.6746 88.44 77.1746 89C77.6746 89.54 78.1646 90.09 78.6446 90.65L78.7346 90.74C78.8946 90.9 79.0446 91.07 79.1846 91.25C79.3246 91.41 79.4546 91.57 79.5746 91.73C79.8746 92.07 80.0846 92.44 80.2046 92.84ZM100.045 75.41C100.165 76.37 100.235 77.49 100.255 78.77C100.275 80.03 100.255 81.31 100.195 82.61C100.155 83.89 100.065 85.11 99.9246 86.27C99.7846 87.41 99.6146 88.33 99.4146 89.03C99.2746 89.45 99.1046 89.89 98.9046 90.35C98.7246 90.79 98.5246 91.19 98.3046 91.55C97.9846 92.09 97.5946 92.57 97.1346 92.99C96.6746 93.39 96.1646 93.74 95.6046 94.04C95.0646 94.32 94.4846 94.54 93.8646 94.7C93.2646 94.86 92.6646 94.95 92.0646 94.97C91.0046 95.01 89.9946 94.86 89.0346 94.52C88.0946 94.16 87.2246 93.6 86.4246 92.84C85.8246 92.26 85.3446 91.64 84.9846 90.98C84.6246 90.32 84.3446 89.63 84.1446 88.91C83.9446 88.17 83.8146 87.41 83.7546 86.63C83.7146 85.85 83.6946 85.05 83.6946 84.23C83.6946 83.85 83.6846 83.38 83.6646 82.82C83.6646 82.24 83.6646 81.65 83.6646 81.05C83.6646 80.43 83.6646 79.83 83.6646 79.25C83.6646 78.67 83.6746 78.18 83.6946 77.78C83.6946 77.52 83.6946 77.24 83.6946 76.94C83.6946 76.62 83.7046 76.31 83.7246 76.01C83.7646 75.69 83.8246 75.39 83.9046 75.11C83.9846 74.81 84.1046 74.54 84.2646 74.3C84.4446 74.04 84.6946 73.85 85.0146 73.73C85.3346 73.61 85.6646 73.55 86.0046 73.55C86.3646 73.55 86.7046 73.62 87.0246 73.76C87.3446 73.9 87.6046 74.1 87.8046 74.36C87.9046 74.52 87.9746 74.68 88.0146 74.84C88.0546 75 88.0846 75.18 88.1046 75.38C88.1446 76.04 88.1646 76.79 88.1646 77.63C88.1846 78.47 88.1846 79.29 88.1646 80.09C88.1646 80.87 88.1546 81.59 88.1346 82.25C88.1146 82.91 88.1046 83.4 88.1046 83.72C88.1046 84.92 88.1646 86.01 88.2846 86.99C88.4046 87.95 88.6846 88.75 89.1246 89.39C89.5246 89.97 89.9946 90.34 90.5346 90.5C91.0746 90.66 91.6146 90.71 92.1546 90.65C92.6546 90.59 93.1546 90.41 93.6546 90.11C94.1746 89.79 94.5846 89.33 94.8846 88.73C95.0046 88.51 95.1046 88.26 95.1846 87.98C95.2646 87.7 95.3246 87.44 95.3646 87.2C95.4446 86.44 95.5146 85.56 95.5746 84.56C95.6346 83.54 95.6846 82.5 95.7246 81.44C95.7646 80.38 95.7846 79.34 95.7846 78.32C95.7846 77.3 95.7746 76.38 95.7546 75.56C95.7946 75.2 95.9046 74.87 96.0846 74.57C96.2446 74.31 96.4746 74.08 96.7746 73.88C97.0746 73.68 97.4846 73.58 98.0046 73.58C98.4246 73.6 98.7646 73.71 99.0246 73.91C99.2846 74.09 99.4946 74.29 99.6546 74.51C99.8346 74.77 99.9646 75.07 100.045 75.41ZM119.838 88.01C119.878 88.65 119.898 89.26 119.898 89.84C119.898 90.4 119.878 91 119.838 91.64C119.838 91.88 119.838 92.15 119.838 92.45C119.838 92.75 119.818 93.04 119.778 93.32C119.738 93.6 119.668 93.86 119.568 94.1C119.468 94.34 119.318 94.53 119.118 94.67C118.878 94.83 118.608 94.94 118.308 95C118.008 95.04 117.728 95.02 117.468 94.94C117.208 94.86 116.978 94.71 116.778 94.49C116.598 94.27 116.498 93.96 116.478 93.56C116.418 92.64 116.388 91.72 116.388 90.8C116.388 90.34 116.378 89.9 116.358 89.48C116.358 89.06 116.368 88.47 116.388 87.71C116.388 87.33 116.358 86.9 116.298 86.42C116.238 85.92 116.088 85.57 115.848 85.37C115.668 85.21 115.468 85.12 115.248 85.1C115.028 85.06 114.808 85.08 114.588 85.16C114.388 85.24 114.208 85.39 114.048 85.61C113.888 85.81 113.778 86.07 113.718 86.39C113.718 86.65 113.708 86.92 113.688 87.2C113.688 87.46 113.698 87.71 113.718 87.95C113.738 88.59 113.748 89.2 113.748 89.78C113.748 90.34 113.738 90.94 113.718 91.58C113.698 91.84 113.688 92.12 113.688 92.42C113.708 92.72 113.708 93.02 113.688 93.32C113.668 93.6 113.608 93.86 113.508 94.1C113.428 94.34 113.278 94.53 113.058 94.67C112.818 94.83 112.558 94.93 112.278 94.97C112.018 94.99 111.768 94.95 111.528 94.85C111.308 94.73 111.108 94.55 110.928 94.31C110.768 94.07 110.678 93.75 110.658 93.35C110.618 92.89 110.588 92.47 110.568 92.09C110.568 91.69 110.568 91.27 110.568 90.83C110.568 90.37 110.578 89.9 110.598 89.42C110.618 88.92 110.608 88.44 110.568 87.98C110.568 87.84 110.558 87.68 110.538 87.5C110.538 87.3 110.528 87.1 110.508 86.9C110.508 86.7 110.488 86.51 110.448 86.33C110.428 86.13 110.388 85.97 110.328 85.85C110.168 85.57 109.878 85.39 109.458 85.31C109.058 85.23 108.718 85.26 108.438 85.4C108.158 85.54 107.948 85.72 107.808 85.94C107.668 86.16 107.568 86.4 107.508 86.66C107.448 86.92 107.418 87.2 107.418 87.5C107.418 87.78 107.418 88.05 107.418 88.31C107.418 89.61 107.418 90.74 107.418 91.7C107.438 92.64 107.338 93.4 107.118 93.98C107.018 94.28 106.808 94.51 106.488 94.67C106.188 94.83 105.858 94.91 105.498 94.91C105.158 94.91 104.838 94.83 104.538 94.67C104.238 94.51 104.038 94.26 103.938 93.92C103.878 93.7 103.818 93.39 103.758 92.99C103.718 92.57 103.688 92.11 103.668 91.61C103.648 91.11 103.638 90.61 103.638 90.11C103.638 89.59 103.638 89.12 103.638 88.7V84.38C103.618 83.92 103.608 83.42 103.608 82.88C103.608 82.34 103.688 81.85 103.848 81.41C103.988 81.03 104.208 80.79 104.508 80.69C104.808 80.57 105.118 80.52 105.438 80.54C105.798 80.54 106.078 80.64 106.278 80.84C106.498 81.02 106.658 81.25 106.758 81.53C106.858 81.79 106.918 82.09 106.938 82.43C106.958 82.75 106.978 83.06 106.998 83.36C107.218 82.86 107.478 82.45 107.778 82.13C108.098 81.79 108.548 81.57 109.128 81.47C110.608 81.19 111.788 81.57 112.668 82.61C113.068 82.21 113.578 81.88 114.198 81.62C114.678 81.44 115.168 81.36 115.668 81.38C116.168 81.38 116.638 81.47 117.078 81.65C117.538 81.83 117.948 82.09 118.308 82.43C118.688 82.77 118.988 83.18 119.208 83.66C119.508 84.3 119.678 85.01 119.718 85.79C119.758 86.57 119.798 87.31 119.838 88.01ZM127.069 81.44C127.729 81.12 128.419 80.89 129.139 80.75C129.859 80.61 130.569 80.58 131.269 80.66C131.989 80.74 132.679 80.93 133.339 81.23C134.019 81.53 134.639 81.95 135.199 82.49C135.659 82.95 136.059 83.51 136.399 84.17C136.739 84.81 136.989 85.44 137.149 86.06C137.489 87.16 137.539 88.27 137.299 89.39C137.059 90.51 136.649 91.55 136.069 92.51C135.789 92.95 135.439 93.35 135.019 93.71C134.619 94.05 134.189 94.33 133.729 94.55C133.129 94.83 132.479 95.02 131.779 95.12C131.079 95.24 130.399 95.27 129.739 95.21C128.539 95.15 127.479 94.85 126.559 94.31C125.659 93.77 124.929 93.08 124.369 92.24C123.829 91.4 123.469 90.45 123.289 89.39C123.129 88.31 123.199 87.21 123.499 86.09C123.819 84.89 124.279 83.92 124.879 83.18C125.499 82.42 126.229 81.84 127.069 81.44ZM127.969 85.46C127.669 85.74 127.439 86.09 127.279 86.51C127.119 86.93 127.019 87.37 126.979 87.83C126.939 88.27 126.969 88.72 127.069 89.18C127.189 89.62 127.369 90.02 127.609 90.38C127.809 90.68 128.169 90.93 128.689 91.13C129.209 91.33 129.749 91.45 130.309 91.49C130.949 91.53 131.509 91.36 131.989 90.98C132.469 90.58 132.829 90.09 133.069 89.51C133.329 88.93 133.449 88.3 133.429 87.62C133.409 86.94 133.229 86.32 132.889 85.76C132.649 85.36 132.309 85.07 131.869 84.89C131.449 84.69 130.999 84.59 130.519 84.59C130.059 84.57 129.599 84.64 129.139 84.8C128.679 84.94 128.289 85.16 127.969 85.46ZM140.77 84.29C140.77 83.83 140.76 83.34 140.74 82.82C140.74 82.3 140.83 81.83 141.01 81.41C141.17 81.03 141.43 80.76 141.79 80.6C142.17 80.42 142.54 80.38 142.9 80.48C143.26 80.54 143.54 80.65 143.74 80.81C143.94 80.97 144.08 81.16 144.16 81.38C144.26 81.58 144.32 81.82 144.34 82.1C144.36 82.36 144.38 82.62 144.4 82.88C144.6 82.52 144.85 82.23 145.15 82.01C145.45 81.79 145.76 81.61 146.08 81.47C146.4 81.33 146.7 81.23 146.98 81.17C147.28 81.11 147.51 81.08 147.67 81.08C148.43 81.08 149.18 81.25 149.92 81.59C150.68 81.91 151.31 82.37 151.81 82.97C152.09 83.33 152.3 83.71 152.44 84.11C152.6 84.49 152.71 84.89 152.77 85.31C152.85 85.73 152.9 86.16 152.92 86.6C152.94 87.02 152.96 87.45 152.98 87.89C153.08 89.17 153.08 90.44 152.98 91.7C152.96 91.96 152.95 92.26 152.95 92.6C152.95 92.94 152.92 93.28 152.86 93.62C152.82 93.94 152.73 94.23 152.59 94.49C152.47 94.73 152.26 94.88 151.96 94.94C151.54 95.04 151.19 95.06 150.91 95C150.65 94.96 150.44 94.87 150.28 94.73C150.12 94.59 150 94.41 149.92 94.19C149.84 93.97 149.77 93.72 149.71 93.44C149.67 93.22 149.63 92.97 149.59 92.69C149.57 92.39 149.55 92.09 149.53 91.79C149.53 91.49 149.52 91.2 149.5 90.92C149.5 90.62 149.5 90.35 149.5 90.11C149.5 89.73 149.49 89.31 149.47 88.85C149.45 88.39 149.45 87.96 149.47 87.56C149.47 86.62 149.22 85.91 148.72 85.43C148.24 84.93 147.58 84.72 146.74 84.8C146.1 84.88 145.54 85.14 145.06 85.58C144.58 86 144.35 86.55 144.37 87.23C144.37 87.49 144.37 87.73 144.37 87.95C144.37 88.17 144.36 88.39 144.34 88.61C144.34 88.83 144.34 89.07 144.34 89.33C144.34 89.59 144.34 89.88 144.34 90.2C144.34 90.86 144.34 91.56 144.34 92.3C144.34 93.02 144.25 93.61 144.07 94.07C143.91 94.55 143.64 94.88 143.26 95.06C142.88 95.24 142.43 95.19 141.91 94.91C141.69 94.79 141.51 94.63 141.37 94.43C141.25 94.21 141.15 93.98 141.07 93.74C141.01 93.5 140.97 93.26 140.95 93.02C140.93 92.76 140.91 92.52 140.89 92.3C140.83 91.64 140.79 91.03 140.77 90.47C140.77 89.89 140.77 89.27 140.77 88.61V84.29ZM166.756 90.89C166.996 90.83 167.236 90.79 167.476 90.77C167.736 90.75 167.966 90.78 168.166 90.86C168.386 90.94 168.566 91.08 168.706 91.28C168.846 91.46 168.916 91.72 168.916 92.06C168.916 92.3 168.856 92.53 168.736 92.75C168.616 92.97 168.466 93.17 168.286 93.35C168.106 93.53 167.906 93.69 167.686 93.83C167.466 93.95 167.256 94.05 167.056 94.13C166.476 94.39 165.806 94.59 165.046 94.73C164.306 94.87 163.536 94.92 162.736 94.88C161.656 94.84 160.616 94.63 159.616 94.25C158.636 93.85 157.866 93.2 157.306 92.3C156.786 91.42 156.476 90.44 156.376 89.36C156.276 88.28 156.326 87.26 156.526 86.3C156.746 85.14 157.116 84.2 157.636 83.48C158.176 82.74 158.816 82.15 159.556 81.71C160.456 81.19 161.466 80.92 162.586 80.9C163.706 80.88 164.776 81.1 165.796 81.56C166.476 81.86 167.086 82.27 167.626 82.79C168.166 83.29 168.576 83.9 168.856 84.62C168.936 84.8 168.996 85.02 169.036 85.28C169.096 85.54 169.136 85.82 169.156 86.12C169.176 86.4 169.176 86.68 169.156 86.96C169.136 87.24 169.086 87.49 169.006 87.71C168.886 88.07 168.736 88.35 168.556 88.55C168.376 88.75 168.146 88.9 167.866 89C167.586 89.1 167.246 89.17 166.846 89.21C166.466 89.23 166.006 89.25 165.466 89.27C164.986 89.29 164.536 89.3 164.116 89.3C163.696 89.3 163.266 89.3 162.826 89.3C162.386 89.28 161.926 89.27 161.446 89.27C160.986 89.25 160.466 89.23 159.886 89.21C159.826 89.61 159.876 89.96 160.036 90.26C160.216 90.54 160.456 90.78 160.756 90.98C161.056 91.16 161.396 91.3 161.776 91.4C162.156 91.5 162.526 91.56 162.886 91.58C163.566 91.62 164.216 91.57 164.836 91.43C165.456 91.27 166.096 91.09 166.756 90.89ZM165.466 85.07C165.086 84.63 164.686 84.31 164.266 84.11C163.946 83.97 163.606 83.91 163.246 83.93C162.906 83.93 162.576 83.98 162.256 84.08C161.676 84.22 161.186 84.52 160.786 84.98C160.746 85.02 160.676 85.12 160.576 85.28C160.476 85.42 160.376 85.57 160.276 85.73C160.196 85.89 160.136 86.04 160.096 86.18C160.056 86.32 160.076 86.39 160.156 86.39H166.036C166.016 86.11 165.966 85.88 165.886 85.7C165.806 85.5 165.666 85.29 165.466 85.07ZM185.05 81.62C185.23 81.9 185.31 82.2 185.29 82.52C185.29 82.98 185.21 83.38 185.05 83.72C185.01 83.82 184.95 83.95 184.87 84.11C184.81 84.27 184.74 84.44 184.66 84.62C184.6 84.8 184.53 84.97 184.45 85.13C184.37 85.29 184.31 85.41 184.27 85.49L184.21 85.64C183.93 86.26 183.66 86.86 183.4 87.44C183.14 88.02 182.85 88.64 182.53 89.3C182.21 89.94 181.9 90.57 181.6 91.19C181.32 91.79 181.04 92.38 180.76 92.96C180.68 93.12 180.61 93.28 180.55 93.44C180.49 93.58 180.41 93.73 180.31 93.89L178.87 96.98C178.61 97.5 178.36 98.01 178.12 98.51C177.9 99.01 177.65 99.51 177.37 100.01C177.31 100.11 177.25 100.2 177.19 100.28C177.15 100.38 177.11 100.48 177.07 100.58C176.93 100.82 176.72 101.05 176.44 101.27C176.18 101.51 175.9 101.64 175.6 101.66C175.06 101.7 174.59 101.54 174.19 101.18C173.95 101.04 173.76 100.84 173.62 100.58C173.54 100.4 173.5 100.17 173.5 99.89C173.52 99.77 173.53 99.65 173.53 99.53C173.55 99.43 173.57 99.33 173.59 99.23C173.63 99.13 173.66 99.03 173.68 98.93C173.7 98.83 173.73 98.75 173.77 98.69C173.83 98.53 173.88 98.45 173.92 98.45L176.11 93.71C176.01 93.49 175.91 93.27 175.81 93.05C175.71 92.81 175.62 92.6 175.54 92.42C175.28 91.8 175 91.15 174.7 90.47C174.42 89.77 174.13 89.08 173.83 88.4C173.53 87.7 173.22 87.02 172.9 86.36C172.58 85.7 172.26 85.07 171.94 84.47C171.82 84.27 171.71 84.06 171.61 83.84C171.51 83.6 171.43 83.37 171.37 83.15C171.31 82.91 171.29 82.67 171.31 82.43C171.33 82.19 171.42 81.95 171.58 81.71C171.74 81.41 171.95 81.2 172.21 81.08C172.47 80.94 172.74 80.88 173.02 80.9C173.32 80.9 173.6 80.96 173.86 81.08C174.12 81.2 174.33 81.36 174.49 81.56C174.83 81.92 175.1 82.32 175.3 82.76C175.5 83.2 175.69 83.65 175.87 84.11C176.25 84.91 176.64 85.75 177.04 86.63C177.44 87.51 177.84 88.37 178.24 89.21L179.8 85.91C179.96 85.59 180.1 85.28 180.22 84.98C180.36 84.68 180.5 84.39 180.64 84.11C180.8 83.77 180.95 83.42 181.09 83.06C181.25 82.7 181.43 82.37 181.63 82.07C181.67 81.99 181.71 81.92 181.75 81.86C181.79 81.8 181.83 81.73 181.87 81.65C182.05 81.41 182.21 81.22 182.35 81.08C182.45 81 182.53 80.94 182.59 80.9C182.67 80.84 182.76 80.8 182.86 80.78C183 80.74 183.13 80.72 183.25 80.72C183.39 80.7 183.52 80.7 183.64 80.72C183.84 80.78 184.08 80.87 184.36 80.99C184.66 81.11 184.89 81.32 185.05 81.62Z" fill="#005128"/>
<path d="M120.132 151.96C120.132 153.56 120.053 155.187 119.893 156.84C119.733 158.44 119.413 160.013 118.933 161.56C118.453 163.053 117.733 164.493 116.773 165.88C115.812 167.213 114.506 168.387 112.853 169.4C112.053 169.933 111.093 170.387 109.973 170.76C108.906 171.08 107.759 171.347 106.533 171.56C105.359 171.827 104.186 171.987 103.013 172.04C101.839 172.147 100.746 172.173 99.7325 172.12C94.9325 171.96 91.0392 170.813 88.0525 168.68C85.1192 166.493 82.8525 163.8 81.2525 160.6C79.7058 157.4 78.6925 153.933 78.2125 150.2C77.7858 146.413 77.7058 142.813 77.9725 139.4C78.1325 137.373 78.4792 135.187 79.0125 132.84C79.5992 130.493 80.4258 128.227 81.4925 126.04C82.6125 123.853 83.9725 121.88 85.5725 120.12C87.2258 118.36 89.1725 117.027 91.4125 116.12C93.4925 115.267 95.7592 114.733 98.2125 114.52C100.719 114.253 103.173 114.333 105.573 114.76C108.026 115.187 110.293 115.96 112.373 117.08C114.506 118.2 116.186 119.693 117.413 121.56C118.266 122.947 118.932 124.627 119.412 126.6C119.892 128.573 119.973 130.467 119.653 132.28C119.386 133.88 118.826 135 117.973 135.64C117.119 136.227 116.186 136.467 115.173 136.36C114.159 136.2 113.173 135.773 112.213 135.08C111.306 134.333 110.693 133.4 110.373 132.28C109.999 131.053 109.546 129.933 109.012 128.92C108.479 127.853 107.653 126.973 106.533 126.28C105.253 125.48 103.893 125.027 102.453 124.92C101.066 124.813 99.7058 124.973 98.3725 125.4C97.0925 125.827 95.8658 126.493 94.6925 127.4C93.5725 128.307 92.6392 129.347 91.8925 130.52C90.9858 131.853 90.2925 133.32 89.8125 134.92C89.3325 136.467 88.9858 138.093 88.7725 139.8C88.5592 141.453 88.4792 143.133 88.5325 144.84C88.6392 146.493 88.8525 148.093 89.1725 149.64C89.7592 152.253 90.6658 154.707 91.8925 157C92.3725 157.853 93.0125 158.627 93.8125 159.32C94.6658 159.96 95.5992 160.493 96.6125 160.92C97.6258 161.293 98.6925 161.533 99.8125 161.64C100.933 161.747 101.999 161.667 103.013 161.4C104.453 161.027 105.626 160.547 106.533 159.96C107.439 159.32 108.159 158.573 108.693 157.72C109.226 156.867 109.573 155.933 109.733 154.92C109.946 153.907 110.053 152.84 110.053 151.72V151.64C109.359 151.64 108.746 151.64 108.213 151.64C107.679 151.587 107.279 151.56 107.013 151.56C105.839 151.56 104.693 151.347 103.573 150.92C102.613 150.6 101.893 150.093 101.412 149.4C100.879 148.813 100.613 148.093 100.613 147.24C100.613 146.92 100.613 146.627 100.613 146.36C100.666 146.04 100.719 145.72 100.773 145.4C100.933 144.973 101.279 144.44 101.812 143.8C102.133 143.533 102.639 143.32 103.333 143.16C103.653 143.053 103.973 142.973 104.293 142.92C104.613 142.813 104.986 142.733 105.413 142.68C105.733 142.627 106.079 142.6 106.453 142.6C106.826 142.6 107.199 142.6 107.573 142.6H114.853C115.439 142.547 116.106 142.627 116.852 142.84C117.653 143 118.266 143.267 118.692 143.64C118.853 143.853 119.013 144.067 119.173 144.28C119.333 144.493 119.466 144.733 119.573 145C119.786 145.587 119.919 146.173 119.973 146.76C120.026 147.08 120.053 147.427 120.053 147.8C120.106 148.12 120.132 148.413 120.132 148.68V151.96ZM143.122 116.28C146.696 114.947 149.922 114.36 152.802 114.52C155.736 114.68 158.349 115.427 160.642 116.76C162.936 118.04 164.882 119.773 166.482 121.96C168.136 124.147 169.469 126.6 170.482 129.32C171.282 131.347 171.896 133.48 172.322 135.72C172.749 137.96 172.989 140.2 173.042 142.44C173.149 144.627 173.069 146.787 172.802 148.92C172.589 151.053 172.216 153.027 171.682 154.84C171.362 156.067 170.989 157.187 170.562 158.2C170.136 159.213 169.629 160.227 169.042 161.24C167.709 163.533 165.976 165.4 163.842 166.84C161.762 168.28 159.469 169.293 156.962 169.88C155.256 170.307 153.496 170.52 151.682 170.52C149.869 170.467 148.082 170.227 146.322 169.8C144.562 169.32 142.856 168.653 141.202 167.8C139.602 166.893 138.136 165.773 136.802 164.44C135.149 162.84 133.789 161 132.722 158.92C131.656 156.787 130.829 154.573 130.242 152.28C129.656 149.933 129.282 147.587 129.122 145.24C128.962 142.893 128.962 140.653 129.122 138.52C129.282 136.547 129.656 134.44 130.242 132.2C130.882 129.96 131.789 127.8 132.962 125.72C134.136 123.64 135.549 121.773 137.202 120.12C138.909 118.413 140.882 117.133 143.122 116.28ZM161.842 150.52C162.482 148.013 162.749 145.187 162.642 142.04C162.536 138.893 162.029 135.933 161.122 133.16C160.536 131.453 159.789 129.96 158.882 128.68C158.029 127.347 156.989 126.333 155.762 125.64C154.589 124.947 153.202 124.6 151.602 124.6C150.002 124.6 148.216 125.08 146.242 126.04C145.069 126.627 144.056 127.427 143.202 128.44C142.402 129.453 141.736 130.6 141.202 131.88C140.722 133.16 140.322 134.493 140.002 135.88C139.736 137.267 139.576 138.6 139.522 139.88C139.416 141.267 139.389 142.733 139.442 144.28C139.496 145.773 139.656 147.293 139.922 148.84C140.242 150.333 140.669 151.773 141.202 153.16C141.736 154.493 142.456 155.693 143.362 156.76C144.749 158.36 146.349 159.48 148.162 160.12C150.029 160.707 151.869 160.787 153.682 160.36C156.616 159.72 158.856 157.773 160.402 154.52C161.042 153.347 161.522 152.013 161.842 150.52Z" fill="#005128"/>
</g>
<defs>
<clipPath id="clip0_349_4625">
<rect width="250" height="250" rx="20" fill="white"/>
</clipPath>
</defs>
</svg>
