<svg width="250" height="250" viewBox="0 0 250 250" fill="none" xmlns="http://www.w3.org/2000/svg">
<g clip-path="url(#clip0_349_4625)">
<rect width="250" height="250" rx="40" fill="white"/>
<path d="M0 0H30V199.94C30 210.986 38.9543 219.94 50 219.94H250V250H0L0 0Z" fill="#046847"/>
<path d="M250 250H220V50.0601C220 39.0144 211.046 30.0601 200 30.0601H30V0H250L250 250Z" fill="#2AD59C"/>
<path d="M61.7916 72.37C62.3116 72.37 62.7616 72.5 63.1416 72.76C63.5216 73.02 63.7116 73.44 63.7116 74.02V82.3L72.5016 72.85C72.8416 72.49 73.2416 72.33 73.7016 72.37C74.1816 72.41 74.5816 72.6 74.9016 72.94C75.2416 73.28 75.4316 73.68 75.4716 74.14C75.5316 74.58 75.3916 74.97 75.0516 75.31L68.3916 82.24L75.7416 91C76.1416 91.46 76.3016 91.92 76.2216 92.38C76.1416 92.84 75.8916 93.24 75.4716 93.58C75.0716 93.9 74.6316 94.06 74.1516 94.06C73.6716 94.08 73.2516 93.86 72.8916 93.4L65.9016 84.67L63.7116 86.92V92.41C63.7116 92.99 63.5216 93.41 63.1416 93.67C62.7616 93.93 62.3116 94.06 61.7916 94.06C61.2716 94.06 60.8216 93.93 60.4416 93.67C60.0616 93.41 59.8716 92.99 59.8716 92.41V74.02C59.8716 73.44 60.0616 73.02 60.4416 72.76C60.8216 72.5 61.2716 72.37 61.7916 72.37ZM80.7821 72.37C81.3021 72.37 81.7521 72.5 82.1321 72.76C82.5121 73.02 82.7021 73.44 82.7021 74.02V85.03C82.7021 86.09 82.7921 86.99 82.9721 87.73C83.1521 88.45 83.4221 89.04 83.7821 89.5C84.1621 89.94 84.6421 90.26 85.2221 90.46C85.8021 90.64 86.4821 90.73 87.2621 90.73C88.0421 90.73 88.7221 90.64 89.3021 90.46C89.8821 90.26 90.3521 89.94 90.7121 89.5C91.0921 89.04 91.3721 88.45 91.5521 87.73C91.7321 86.99 91.8221 86.09 91.8221 85.03V74.02C91.8221 73.44 92.0121 73.02 92.3921 72.76C92.7721 72.5 93.2221 72.37 93.7421 72.37C94.2621 72.37 94.7121 72.5 95.0921 72.76C95.4721 73.02 95.6621 73.44 95.6621 74.02V84.97C95.6621 86.75 95.4721 88.23 95.0921 89.41C94.7321 90.59 94.1921 91.54 93.4721 92.26C92.7721 92.96 91.9021 93.46 90.8621 93.76C89.8221 94.06 88.6221 94.21 87.2621 94.21C85.9021 94.21 84.7021 94.06 83.6621 93.76C82.6221 93.46 81.7421 92.96 81.0221 92.26C80.3221 91.54 79.7821 90.59 79.4021 89.41C79.0421 88.23 78.8621 86.75 78.8621 84.97V74.02C78.8621 73.44 79.0521 73.02 79.4321 72.76C79.8121 72.5 80.2621 72.37 80.7821 72.37ZM107.521 77.59C108.541 77.59 109.451 77.82 110.251 78.28C111.071 78.74 111.631 79.35 111.931 80.11C112.511 79.27 113.191 78.64 113.971 78.22C114.771 77.8 115.801 77.59 117.061 77.59C117.821 77.59 118.541 77.72 119.221 77.98C119.921 78.24 120.531 78.63 121.051 79.15C121.571 79.67 121.981 80.32 122.281 81.1C122.601 81.88 122.761 82.79 122.761 83.83V92.47C122.761 93.01 122.571 93.41 122.191 93.67C121.811 93.93 121.371 94.06 120.871 94.06C120.391 94.06 119.951 93.93 119.551 93.67C119.171 93.41 118.981 93.01 118.981 92.47V84.61C118.981 83.87 118.901 83.26 118.741 82.78C118.581 82.3 118.361 81.93 118.081 81.67C117.801 81.39 117.481 81.2 117.121 81.1C116.761 81 116.381 80.95 115.981 80.95C115.621 80.95 115.251 81.01 114.871 81.13C114.511 81.23 114.191 81.42 113.911 81.7C113.631 81.96 113.401 82.32 113.221 82.78C113.041 83.24 112.951 83.81 112.951 84.49V92.47C112.951 93.01 112.761 93.41 112.381 93.67C112.001 93.93 111.561 94.06 111.061 94.06C110.581 94.06 110.141 93.93 109.741 93.67C109.361 93.41 109.171 93.01 109.171 92.47V84.55C109.171 83.85 109.091 83.27 108.931 82.81C108.771 82.35 108.551 81.98 108.271 81.7C108.011 81.42 107.701 81.23 107.341 81.13C106.981 81.01 106.591 80.95 106.171 80.95C105.271 80.95 104.541 81.23 103.981 81.79C103.421 82.35 103.141 83.2 103.141 84.34V92.47C103.141 93.01 102.951 93.41 102.571 93.67C102.191 93.93 101.751 94.06 101.251 94.06C100.771 94.06 100.331 93.93 99.9307 93.67C99.5507 93.41 99.3607 93.01 99.3607 92.47V79.3C99.3607 78.78 99.5407 78.4 99.9007 78.16C100.261 77.9 100.671 77.77 101.131 77.77C101.591 77.77 102.001 77.9 102.361 78.16C102.741 78.4 102.931 78.78 102.931 79.3V80.14C103.371 79.32 103.981 78.69 104.761 78.25C105.541 77.81 106.461 77.59 107.521 77.59ZM133.375 77.59C135.815 77.59 137.715 78.26 139.075 79.6C140.435 80.92 141.115 82.88 141.115 85.48V86.23C141.115 88.83 140.435 90.8 139.075 92.14C137.715 93.46 135.815 94.12 133.375 94.12C130.935 94.12 129.035 93.46 127.675 92.14C126.315 90.8 125.635 88.83 125.635 86.23V85.48C125.635 82.88 126.315 80.92 127.675 79.6C129.035 78.26 130.935 77.59 133.375 77.59ZM133.375 80.89C132.015 80.89 131.015 81.26 130.375 82C129.755 82.74 129.445 83.92 129.445 85.54V86.17C129.445 87.79 129.755 88.97 130.375 89.71C131.015 90.45 132.015 90.82 133.375 90.82C134.735 90.82 135.725 90.45 136.345 89.71C136.985 88.97 137.305 87.79 137.305 86.17V85.54C137.305 83.92 136.985 82.74 136.345 82C135.725 81.26 134.735 80.89 133.375 80.89ZM152.677 77.59C154.437 77.59 155.837 78.11 156.877 79.15C157.917 80.17 158.437 81.69 158.437 83.71V92.47C158.437 93.01 158.247 93.41 157.867 93.67C157.487 93.93 157.047 94.06 156.547 94.06C156.067 94.06 155.627 93.93 155.227 93.67C154.847 93.41 154.657 93.01 154.657 92.47V84.52C154.657 83.8 154.577 83.21 154.417 82.75C154.257 82.27 154.037 81.9 153.757 81.64C153.477 81.36 153.137 81.17 152.737 81.07C152.357 80.95 151.947 80.89 151.507 80.89C151.127 80.89 150.727 80.95 150.307 81.07C149.887 81.19 149.497 81.4 149.137 81.7C148.797 82 148.507 82.4 148.267 82.9C148.047 83.4 147.937 84.02 147.937 84.76V92.47C147.937 93.01 147.747 93.41 147.367 93.67C146.987 93.93 146.547 94.06 146.047 94.06C145.567 94.06 145.127 93.93 144.727 93.67C144.347 93.41 144.157 93.01 144.157 92.47V79.3C144.157 78.78 144.337 78.4 144.697 78.16C145.077 77.9 145.497 77.77 145.957 77.77C146.417 77.77 146.827 77.9 147.187 78.16C147.567 78.4 147.757 78.78 147.757 79.3V79.84H147.817C148.057 79.46 148.357 79.13 148.717 78.85C149.077 78.55 149.467 78.31 149.887 78.13C150.327 77.95 150.787 77.82 151.267 77.74C151.747 77.64 152.217 77.59 152.677 77.59ZM168.79 80.71C167.53 80.71 166.58 81.04 165.94 81.7C165.32 82.36 165.01 83.2 165.01 84.22V84.43H172.45V84.13C172.45 83.15 172.17 82.34 171.61 81.7C171.05 81.04 170.11 80.71 168.79 80.71ZM168.85 77.59C169.93 77.59 170.91 77.75 171.79 78.07C172.67 78.39 173.43 78.85 174.07 79.45C174.71 80.05 175.2 80.79 175.54 81.67C175.9 82.55 176.08 83.56 176.08 84.7V84.76C176.08 85.7 175.89 86.35 175.51 86.71C175.15 87.07 174.49 87.25 173.53 87.25H165.01V87.31C165.01 88.39 165.34 89.27 166 89.95C166.68 90.63 167.69 90.97 169.03 90.97C169.87 90.97 170.6 90.91 171.22 90.79C171.86 90.65 172.51 90.43 173.17 90.13C173.57 89.95 173.96 89.93 174.34 90.07C174.72 90.19 175 90.46 175.18 90.88C175.36 91.3 175.4 91.71 175.3 92.11C175.2 92.49 174.95 92.78 174.55 92.98C173.79 93.36 172.96 93.65 172.06 93.85C171.16 94.03 170.1 94.12 168.88 94.12C166.48 94.12 164.62 93.47 163.3 92.17C161.98 90.85 161.32 88.88 161.32 86.26V85.48C161.32 82.88 161.99 80.92 163.33 79.6C164.67 78.26 166.51 77.59 168.85 77.59ZM191.381 77.89C191.841 78.03 192.191 78.3 192.431 78.7C192.691 79.1 192.721 79.56 192.521 80.08L185.021 99.13C184.821 99.63 184.501 99.93 184.061 100.03C183.621 100.15 183.161 100.11 182.681 99.91C182.201 99.71 181.871 99.43 181.691 99.07C181.511 98.71 181.511 98.3 181.691 97.84L183.311 93.94L177.851 80.2C177.631 79.66 177.651 79.19 177.911 78.79C178.191 78.39 178.561 78.11 179.021 77.95C179.261 77.87 179.501 77.82 179.741 77.8C179.981 77.76 180.211 77.78 180.431 77.86C180.671 77.92 180.881 78.04 181.061 78.22C181.241 78.38 181.381 78.61 181.481 78.91L185.231 89.65H185.261L188.981 78.91C189.181 78.33 189.521 77.98 190.001 77.86C190.481 77.74 190.941 77.75 191.381 77.89Z" fill="#046847"/>
<path d="M99.2891 111.92C103.076 111.92 106.302 112.32 108.969 113.12C111.689 113.92 113.982 114.96 115.849 116.24C117.076 117.093 117.742 118.133 117.849 119.36C117.956 120.587 117.636 121.733 116.889 122.8C116.142 123.867 115.209 124.533 114.089 124.8C113.022 125.067 111.982 124.88 110.969 124.24C109.422 123.28 107.689 122.533 105.769 122C103.902 121.467 101.742 121.2 99.2891 121.2C96.6224 121.2 94.3024 121.52 92.3291 122.16C90.4091 122.747 88.8091 123.787 87.5291 125.28C86.3024 126.773 85.3957 128.747 84.8091 131.2C84.2224 133.653 83.9291 136.72 83.9291 140.4V142.08C83.9291 145.76 84.2224 148.827 84.8091 151.28C85.3957 153.733 86.3024 155.707 87.5291 157.2C88.8091 158.693 90.4357 159.76 92.4091 160.4C94.4357 160.987 96.8891 161.28 99.7691 161.28C101.742 161.28 103.449 161.147 104.889 160.88C106.382 160.613 107.876 160.187 109.369 159.6V146.24H100.409C99.1824 146.24 98.2757 145.813 97.6891 144.96C97.1024 144.107 96.8091 143.093 96.8091 141.92C96.8091 140.8 97.1024 139.813 97.6891 138.96C98.2757 138.107 99.1824 137.68 100.409 137.68H112.729C115.289 137.68 117.049 138.16 118.009 139.12C119.022 140.08 119.529 141.813 119.529 144.32V160.16C119.529 162.187 119.182 163.76 118.489 164.88C117.796 166 116.596 166.933 114.889 167.68C112.756 168.587 110.329 169.307 107.609 169.84C104.942 170.32 102.222 170.56 99.4491 170.56C95.2891 170.56 91.5824 170.08 88.3291 169.12C85.1291 168.107 82.4357 166.507 80.2491 164.32C78.0624 162.133 76.4091 159.28 75.2891 155.76C74.1691 152.24 73.6091 147.947 73.6091 142.88V139.6C73.6091 134.533 74.1691 130.24 75.2891 126.72C76.4091 123.2 78.0624 120.347 80.2491 118.16C82.4357 115.973 85.1024 114.4 88.2491 113.44C91.4491 112.427 95.1291 111.92 99.2891 111.92ZM152.933 111.92C156.826 111.92 160.293 112.453 163.333 113.52C166.373 114.587 168.933 116.24 171.013 118.48C173.093 120.72 174.666 123.6 175.733 127.12C176.853 130.587 177.413 134.747 177.413 139.6V142.88C177.413 147.733 176.853 151.92 175.733 155.44C174.666 158.907 173.093 161.76 171.013 164C168.933 166.24 166.373 167.893 163.333 168.96C160.293 170.027 156.826 170.56 152.933 170.56C149.039 170.56 145.573 170.027 142.533 168.96C139.493 167.893 136.933 166.24 134.853 164C132.773 161.76 131.173 158.907 130.053 155.44C128.986 151.92 128.453 147.733 128.453 142.88V139.6C128.453 134.747 128.986 130.587 130.053 127.12C131.173 123.6 132.773 120.72 134.853 118.48C136.933 116.24 139.493 114.587 142.533 113.52C145.573 112.453 149.039 111.92 152.933 111.92ZM152.933 121.28C150.586 121.28 148.533 121.6 146.773 122.24C145.013 122.88 143.519 123.947 142.293 125.44C141.119 126.88 140.239 128.827 139.653 131.28C139.066 133.733 138.773 136.773 138.773 140.4V142.08C138.773 145.707 139.066 148.747 139.653 151.2C140.239 153.653 141.119 155.627 142.293 157.12C143.519 158.56 145.013 159.6 146.773 160.24C148.533 160.88 150.586 161.2 152.933 161.2C155.279 161.2 157.333 160.88 159.093 160.24C160.853 159.6 162.319 158.56 163.493 157.12C164.719 155.627 165.626 153.653 166.213 151.2C166.799 148.747 167.093 145.707 167.093 142.08V140.4C167.093 136.773 166.799 133.733 166.213 131.28C165.626 128.827 164.719 126.88 163.493 125.44C162.319 123.947 160.853 122.88 159.093 122.24C157.333 121.6 155.279 121.28 152.933 121.28Z" fill="#046847"/>
</g>
<defs>
<clipPath id="clip0_349_4625">
<rect width="250" height="250" rx="40" fill="white"/>
</clipPath>
</defs>
</svg>
