<svg width="39" height="39" viewBox="0 0 39 39" fill="none" xmlns="http://www.w3.org/2000/svg">
<path d="M6.1333 11.3514L25.1773 1.19762C25.3932 1.08243 25.6275 1.01639 25.8666 1.00337C26.1056 0.990347 26.3446 1.03061 26.5695 1.12179C26.7945 1.21298 27.0008 1.35326 27.1766 1.53442C27.3523 1.71559 27.4938 1.934 27.5929 2.17688L31.3333 11.3514M8.8333 15.3648V11.3514M8.8333 23.3915V25.3982M8.8333 33.4249V37.4383" stroke="#920883" stroke-width="2" stroke-linecap="round" stroke-linejoin="round"/>
<path d="M34.0333 11.3516H5.2333C3.24508 11.3516 1.6333 13.1484 1.6333 15.3649V33.4251C1.6333 35.6416 3.24508 37.4384 5.2333 37.4384H34.0333C36.0215 37.4384 37.6333 35.6416 37.6333 33.4251V15.3649C37.6333 13.1484 36.0215 11.3516 34.0333 11.3516Z" stroke="#920883" stroke-width="2" stroke-linecap="round" stroke-linejoin="round"/>
</svg>
