<svg width="25" height="25" viewBox="0 0 25 25" fill="none" xmlns="http://www.w3.org/2000/svg">
<path d="M9.79498 17.2203C10.1855 17.6108 10.8187 17.6108 11.2092 17.2203L18.8943 9.53524C19.1657 9.2638 19.1657 8.8237 18.8943 8.55226C18.6228 8.28081 18.1827 8.28081 17.9113 8.55226L10.5021 15.9615L7.03524 12.4946C6.7638 12.2232 6.3237 12.2232 6.05226 12.4946C5.78081 12.7661 5.78081 13.2062 6.05226 13.4776L9.79498 17.2203ZM12.5045 25C10.776 25 9.15093 24.672 7.62917 24.016C6.10764 23.36 4.78403 22.4697 3.65833 21.3451C2.53264 20.2206 1.64155 18.8981 0.985069 17.3778C0.328356 15.8576 0 14.2332 0 12.5045C0 10.776 0.328009 9.15092 0.984028 7.62917C1.64005 6.10764 2.53032 4.78403 3.65486 3.65833C4.7794 2.53264 6.10185 1.64155 7.62222 0.985069C9.14236 0.328356 10.7668 0 12.4955 0C14.224 0 15.8491 0.32801 17.3708 0.984029C18.8924 1.64005 20.216 2.53032 21.3417 3.65486C22.4674 4.7794 23.3584 6.10185 24.0149 7.62222C24.6716 9.14236 25 10.7668 25 12.4955C25 14.224 24.672 15.8491 24.016 17.3708C23.36 18.8924 22.4697 20.216 21.3451 21.3417C20.2206 22.4674 18.8981 23.3584 17.3778 24.0149C15.8576 24.6716 14.2332 25 12.5045 25Z" fill="#BA00A6"/>
</svg>
