<svg width="61" height="60" viewBox="0 0 61 60" fill="none" xmlns="http://www.w3.org/2000/svg">
<path fill-rule="evenodd" clip-rule="evenodd" d="M30.5 60C34.4397 60 38.3407 59.224 41.9805 57.7164C45.6203 56.2087 48.9274 53.999 51.7132 51.2132C54.499 48.4274 56.7087 45.1203 58.2164 41.4805C59.724 37.8407 60.5 33.9397 60.5 30C60.5 26.0603 59.724 22.1593 58.2164 18.5195C56.7087 14.8797 54.499 11.5726 51.7132 8.7868C48.9274 6.00104 45.6203 3.79125 41.9805 2.28361C38.3407 0.775973 34.4397 -5.87054e-08 30.5 0C22.5435 1.18561e-07 14.9129 3.1607 9.2868 8.7868C3.66071 14.4129 0.5 22.0435 0.5 30C0.5 37.9565 3.66071 45.5871 9.2868 51.2132C14.9129 56.8393 22.5435 60 30.5 60ZM29.7267 42.1333L44.2599 24.6935C45.4382 23.2795 45.2471 21.1782 43.8332 19.9999C42.4194 18.8217 40.3182 19.0126 39.1399 20.4263L26.94 35.0633L21.8797 30.0008C20.5784 28.6989 18.468 28.6987 17.1664 30.0003C15.865 31.3017 15.865 33.4117 17.1664 34.7131L24.81 42.3567C26.1955 43.7422 28.4721 43.6384 29.7267 42.1333Z" fill="black"/>
</svg>
