<svg width="24" height="24" viewBox="0 0 24 24" fill="none" xmlns="http://www.w3.org/2000/svg">
<g clip-path="url(#clip0_296_4341)">
<mask id="mask0_296_4341" style="mask-type:alpha" maskUnits="userSpaceOnUse" x="0" y="0" width="24" height="24">
<rect width="24" height="24" fill="#D9D9D9"/>
</mask>
<g mask="url(#mask0_296_4341)">
<path d="M12.1 18.7C10.2295 18.7 8.64527 18.0514 7.34727 16.754C6.04911 15.4567 5.40002 13.8734 5.40002 12.004C5.40002 10.1347 6.04911 8.55005 7.34727 7.25005C8.64527 5.95005 10.2295 5.30005 12.1 5.30005C13.3 5.30005 14.4167 5.59588 15.45 6.18755C16.4834 6.77922 17.3 7.60005 17.9 8.65005V5.65005C17.9 5.45675 18.0567 5.30005 18.25 5.30005C18.4433 5.30005 18.6 5.45675 18.6 5.65005V9.50005C18.6 9.77619 18.3762 10 18.1 10H14.25C14.0567 10 13.9 9.84335 13.9 9.65005C13.9 9.45675 14.0567 9.30005 14.25 9.30005H17.45C16.9334 8.28338 16.2 7.47922 15.25 6.88755C14.3 6.29588 13.25 6.00005 12.1 6.00005C10.4334 6.00005 9.01669 6.58338 7.85002 7.75005C6.68336 8.91672 6.10002 10.3334 6.10002 12C6.10002 13.6667 6.68336 15.0834 7.85002 16.25C9.01669 17.4167 10.4334 18 12.1 18C13.3834 18 14.5417 17.6334 15.575 16.9C16.5378 16.2168 17.2329 15.331 17.6603 14.2426C17.7169 14.0985 17.8538 14 18.0086 14C18.253 14 18.4278 14.2366 18.3407 14.4649C17.8822 15.6677 17.1311 16.6502 16.0875 17.4125C14.9125 18.2709 13.5834 18.7 12.1 18.7Z" fill="#1C1B1F"/>
</g>
</g>
<defs>
<clipPath id="clip0_296_4341">
<rect width="24" height="24" fill="white"/>
</clipPath>
</defs>
</svg>
