<svg width="24" height="24" viewBox="0 0 24 24" fill="none" xmlns="http://www.w3.org/2000/svg">
<mask id="mask0_913_2264" style="mask-type:alpha" maskUnits="userSpaceOnUse" x="0" y="0" width="24" height="24">
<rect width="24" height="24" fill="#D9D9D9"/>
</mask>
<g mask="url(#mask0_913_2264)">
<path d="M5.875 19C5.63338 19 5.4375 18.8041 5.4375 18.5625V15.7576C5.4375 15.2053 5.88522 14.7576 6.4375 14.7576H17.5625C18.1148 14.7576 18.5625 15.2053 18.5625 15.7576V18.5625C18.5625 18.8041 18.3666 19 18.125 19C17.8834 19 17.6875 18.8041 17.6875 18.5625V15.6061H6.3125V18.5625C6.3125 18.8041 6.11662 19 5.875 19ZM5.87697 13.3542C5.63445 13.3542 5.42766 13.2719 5.25659 13.1073C5.08553 12.9427 5 12.7428 5 12.5076C5 12.2726 5.08487 12.0721 5.25462 11.906C5.42437 11.7402 5.63051 11.6572 5.87303 11.6572C6.11555 11.6572 6.32234 11.7395 6.49341 11.9041C6.66447 12.0687 6.75 12.2686 6.75 12.5038C6.75 12.739 6.66513 12.9395 6.49538 13.1054C6.32563 13.2712 6.11949 13.3542 5.87697 13.3542ZM9.29809 13.2564C8.74581 13.2564 8.29809 12.8087 8.29809 12.2564V6.37051C8.29809 5.99365 8.43649 5.67101 8.71328 5.40261C8.99007 5.1342 9.32279 5 9.71144 5H14.2886C14.6772 5 15.0099 5.1342 15.2867 5.40261C15.5635 5.67101 15.7019 5.99365 15.7019 6.37051V12.2564C15.7019 12.8087 15.2542 13.2564 14.7019 13.2564H9.29809ZM18.127 13.3542C17.8844 13.3542 17.6777 13.2719 17.5066 13.1073C17.3355 12.9427 17.25 12.7428 17.25 12.5076C17.25 12.2726 17.3349 12.0721 17.5046 11.906C17.6744 11.7402 17.8805 11.6572 18.123 11.6572C18.3656 11.6572 18.5723 11.7395 18.7434 11.9041C18.9145 12.0687 19 12.2686 19 12.5038C19 12.739 18.9151 12.9395 18.7454 13.1054C18.5756 13.2712 18.3695 13.3542 18.127 13.3542ZM9.17309 12.4079H14.8269V6.37051C14.8269 6.21821 14.7764 6.09313 14.6755 5.99527C14.5745 5.89741 14.4455 5.84848 14.2886 5.84848H9.71144C9.55452 5.84848 9.42553 5.89741 9.32447 5.99527C9.22355 6.09313 9.17309 6.21821 9.17309 6.37051V12.4079Z" fill="#858585"/>
</g>
</svg>
