<svg width="353" height="358" viewBox="0 0 353 358" fill="none" xmlns="http://www.w3.org/2000/svg">
<mask id="path-1-inside-1_297_5032" fill="white">
<path fill-rule="evenodd" clip-rule="evenodd" d="M0 20C0 8.95431 8.95431 0 20 0H333C344.046 0 353 8.9543 353 20V81.2817C353 86.6958 348.316 90.9217 343.934 94.1013C339.688 97.1822 336.915 102.268 336.915 108.02C336.915 113.772 339.688 118.857 343.934 121.938C348.316 125.118 353 129.344 353 134.758V338C353 349.046 344.046 358 333 358H20C8.9543 358 0 349.046 0 338V134.758C0 129.344 4.68381 125.118 9.06597 121.938C13.3121 118.857 16.0855 113.772 16.0855 108.02C16.0855 102.268 13.3121 97.1821 9.06597 94.1013C4.6838 90.9217 0 86.6958 0 81.2817V20Z"/>
</mask>
<path fill-rule="evenodd" clip-rule="evenodd" d="M0 20C0 8.95431 8.95431 0 20 0H333C344.046 0 353 8.9543 353 20V81.2817C353 86.6958 348.316 90.9217 343.934 94.1013C339.688 97.1822 336.915 102.268 336.915 108.02C336.915 113.772 339.688 118.857 343.934 121.938C348.316 125.118 353 129.344 353 134.758V338C353 349.046 344.046 358 333 358H20C8.9543 358 0 349.046 0 338V134.758C0 129.344 4.68381 125.118 9.06597 121.938C13.3121 118.857 16.0855 113.772 16.0855 108.02C16.0855 102.268 13.3121 97.1821 9.06597 94.1013C4.6838 90.9217 0 86.6958 0 81.2817V20Z" fill="white"/>
<path d="M9.06597 94.1013L8.4787 94.9107L9.06597 94.1013ZM343.934 94.1013L343.347 93.2919L343.934 94.1013ZM20 -1C8.40202 -1 -1 8.40203 -1 20H1C1 9.5066 9.50659 1 20 1V-1ZM333 -1H20V1H333V-1ZM354 20C354 8.40202 344.598 -1 333 -1V1C343.493 1 352 9.50659 352 20H354ZM354 81.2817V20H352V81.2817H354ZM337.915 108.02C337.915 102.594 340.529 97.8072 344.521 94.9107L343.347 93.2919C338.847 96.5571 335.915 101.941 335.915 108.02H337.915ZM344.521 121.129C340.529 118.232 337.915 113.445 337.915 108.02H335.915C335.915 114.098 338.847 119.482 343.347 122.747L344.521 121.129ZM354 338V134.758H352V338H354ZM333 359C344.598 359 354 349.598 354 338H352C352 348.493 343.493 357 333 357V359ZM20 359H333V357H20V359ZM-1 338C-1 349.598 8.40201 359 20 359V357C9.50658 357 1 348.493 1 338H-1ZM-1 134.758V338H1V134.758H-1ZM15.0855 108.02C15.0855 113.445 12.4707 118.232 8.4787 121.129L9.65324 122.747C14.1534 119.482 17.0855 114.098 17.0855 108.02H15.0855ZM8.4787 94.9107C12.4707 97.8072 15.0855 102.594 15.0855 108.02H17.0855C17.0855 101.941 14.1534 96.5571 9.65324 93.2919L8.4787 94.9107ZM-1 20V81.2817H1V20H-1ZM9.65324 93.2919C7.48543 91.719 5.30346 89.9291 3.66801 87.9016C2.03639 85.8789 1 83.6843 1 81.2817H-1C-1 84.2932 0.305506 86.9186 2.11133 89.1573C3.91333 91.3912 6.26434 93.304 8.4787 94.9107L9.65324 93.2919ZM1 134.758C1 132.355 2.0364 130.16 3.66801 128.138C5.30346 126.11 7.48543 124.32 9.65324 122.747L8.4787 121.129C6.26434 122.735 3.91333 124.648 2.11134 126.882C0.305508 129.121 -1 131.746 -1 134.758H1ZM343.347 122.747C345.515 124.32 347.697 126.11 349.332 128.138C350.964 130.16 352 132.355 352 134.758H354C354 131.746 352.694 129.121 350.889 126.882C349.087 124.648 346.736 122.735 344.521 121.129L343.347 122.747ZM352 81.2817C352 83.6843 350.964 85.8789 349.332 87.9016C347.697 89.9291 345.515 91.719 343.347 93.2919L344.521 94.9107C346.736 93.304 349.087 91.3912 350.889 89.1573C352.694 86.9186 354 84.2932 354 81.2817H352Z" fill="#EAEAEA" mask="url(#path-1-inside-1_297_5032)"/>
</svg>
