<svg width="25" height="24" viewBox="0 0 25 24" fill="none" xmlns="http://www.w3.org/2000/svg">
<path d="M8.44046 3.83997L7.76674 3.99425C7.82776 4.25775 7.83538 4.53066 7.78918 4.79712C7.74297 5.06357 7.64385 5.31825 7.49757 5.54635C7.3513 5.77445 7.1608 5.97142 6.93714 6.12581C6.71348 6.2802 6.46112 6.38893 6.19474 6.44568C5.65458 6.55844 5.0914 6.45639 4.62624 6.16148C4.16109 5.86657 3.83109 5.40233 3.70718 4.86854L2.35975 5.14282C2.17497 5.18283 2.00028 5.2596 1.84623 5.36849C1.69219 5.47738 1.56199 5.61614 1.46349 5.77636C1.365 5.93659 1.30027 6.11497 1.2732 6.30073C1.24613 6.48648 1.25728 6.67575 1.30599 6.85711C1.30599 6.85711 1.92788 9.71997 2.65342 12.9428" stroke="#A5A5A5" stroke-width="2" stroke-linecap="round" stroke-linejoin="round"/>
<path d="M21.3966 3.82284C21.2933 4.11149 21.1321 4.37634 20.9227 4.60134C20.7133 4.82635 20.46 5.00682 20.1783 5.13183C19.8965 5.25684 19.5921 5.32378 19.2835 5.32859C18.9749 5.33341 18.6685 5.276 18.3829 5.15985C18.0973 5.0437 17.8384 4.87122 17.622 4.65286C17.4055 4.4345 17.236 4.17481 17.1237 3.88952C17.0114 3.60423 16.9586 3.29928 16.9685 2.99315C16.9785 2.68702 17.0509 2.38607 17.1815 2.10855L15.7823 1.45712C15.4086 1.3026 14.9887 1.30054 14.6135 1.45138C14.2384 1.60223 13.9383 1.8938 13.7784 2.26284L7.97409 15.8228L7.21401 17.5371C7.0583 17.9079 7.05622 18.3247 7.20822 18.697C7.36023 19.0693 7.65405 19.367 8.02592 19.5257L15.0395 22.4914C15.4131 22.6459 15.8331 22.648 16.2082 22.4971C16.5834 22.3463 16.8835 22.0547 17.0433 21.6857L23.6077 6.35998C23.7525 6.0036 23.7564 5.60614 23.6187 5.24702C23.481 4.88791 23.2118 4.59357 22.8649 4.42284L21.3966 3.82284Z" stroke="#A5A5A5" stroke-width="2" stroke-linecap="round" stroke-linejoin="round"/>
</svg>
